<?xml version="1.0" encoding="utf-8"?>
<!-- Generator: Adobe Illustrator 15.1.0, SVG Export Plug-In . SVG Version: 6.00 Build 0)  -->
<!DOCTYPE svg PUBLIC "-//W3C//DTD SVG 1.1//EN" "http://www.w3.org/Graphics/SVG/1.1/DTD/svg11.dtd">
<svg version="1.1" id="Capa_1" xmlns="http://www.w3.org/2000/svg" x="0px" y="0px"
     width="595.28px" height="841.89px" viewBox="0 0 595.28 841.89" enable-background="new 0 0 595.28 841.89"
     xml:space="preserve">
<g>
	<rect x="157.427" y="342.974" fill="#F7A815" width="38.784" height="22"/>
    <rect x="400.134" y="342.974" fill="#F7A815" width="38.784" height="22"/>
    <rect x="85.522" y="578.154" fill="#F7A815" width="424.553" height="5.32"/>
    <g>
		<path fill="#1F71B8" d="M118.129,562.604H85.206v-0.73c0.778,0,1.398-0.037,1.861-0.109c0.461-0.074,0.814-0.23,1.059-0.477
			c0.242-0.244,0.402-0.596,0.475-1.061c0.072-0.463,0.109-1.109,0.109-1.939v-40.895c0-0.777-0.037-1.412-0.109-1.9
			c-0.072-0.486-0.232-0.854-0.475-1.1c-0.244-0.24-0.598-0.4-1.059-0.475c-0.463-0.072-1.083-0.107-1.861-0.107v-0.732h13.433
			v0.732c-0.78,0-1.413,0.035-1.899,0.107c-0.486,0.074-0.863,0.234-1.131,0.475c-0.268,0.246-0.45,0.6-0.549,1.063
			c-0.097,0.465-0.146,1.111-0.146,1.938v40.311c0,0.438,0.134,0.766,0.401,0.988c0.268,0.219,0.584,0.354,0.949,0.4
			c0.365,0.049,0.756,0.063,1.168,0.037s0.768-0.037,1.061-0.037h10.657c1.313,0,2.481-0.047,3.504-0.145
			c1.021-0.098,1.922-0.33,2.7-0.695c0.778-0.367,1.473-0.926,2.082-1.682c0.607-0.758,1.203-1.77,1.787-3.039l0.949,0.223
			L118.129,562.604z"/>
        <path fill="#1F71B8" d="M158.351,562.604v-0.73c1.119,0,1.947-0.207,2.482-0.623c0.535-0.412,0.535-1.23,0-2.451l-4.526-11.119
			h-21.972l-4.088,10.242c-0.537,1.268-0.693,2.244-0.477,2.926c0.221,0.686,1.106,1.025,2.666,1.025v0.73h-10.221v-0.73
			c0.584-0.049,1.082-0.219,1.497-0.512c0.413-0.293,0.778-0.635,1.095-1.025c0.315-0.391,0.584-0.83,0.803-1.316
			c0.22-0.486,0.426-0.975,0.621-1.463l18.688-44.992h4.016l19.418,46.895c0.535,1.316,1.58,2.121,3.139,2.414v0.73H158.351z
			 M145.431,520.248l-9.637,23.848h19.272L145.431,520.248z"/>
        <path fill="#1F71B8" d="M230.437,562.129c-2.799,0.9-5.729,1.354-8.795,1.354c-3.895,0-7.361-0.623-10.402-1.865
			c-3.042-1.244-5.634-2.988-7.775-5.232c-2.143-2.24-3.771-4.938-4.891-8.084c-1.119-3.143-1.68-6.619-1.68-10.422
			c0-3.66,0.584-7.061,1.752-10.207c1.169-3.146,2.834-5.877,5.001-8.193c2.164-2.314,4.77-4.121,7.812-5.412
			c3.041-1.293,6.435-1.939,10.184-1.939c2.578,0,5.157,0.293,7.736,0.877c0.293,0.1,0.67,0.209,1.133,0.33
			c0.461,0.123,0.936,0.256,1.424,0.402c0.485,0.146,0.949,0.268,1.387,0.365c0.438,0.1,0.803,0.146,1.096,0.146
			c0.924,0,1.507-0.438,1.752-1.316h0.803c0,0.779,0,1.682,0,2.707c0,0.977-0.013,1.975-0.037,2.998
			c-0.025,1.023-0.073,2.025-0.146,3c-0.072,0.977-0.207,1.828-0.4,2.561c-1.705-2.779-3.603-4.889-5.695-6.328
			c-2.092-1.438-4.818-2.158-8.176-2.158c-3.261,0-6.084,0.598-8.468,1.793c-2.386,1.195-4.343,2.791-5.876,4.791
			c-1.533,2.002-2.678,4.344-3.432,7.023c-0.756,2.684-1.131,5.512-1.131,8.486c0,3.072,0.389,5.951,1.168,8.633
			c0.777,2.682,1.957,5.01,3.539,6.986c1.582,1.975,3.578,3.535,5.986,4.682c2.41,1.146,5.268,1.719,8.578,1.719
			c1.168,0,2.434-0.025,3.796-0.072c1.362-0.049,2.714-0.186,4.052-0.404c1.339-0.219,2.615-0.561,3.833-1.023
			c1.215-0.463,2.312-1.109,3.284-1.939l0.293,1.246C235.803,559.729,233.235,561.227,230.437,562.129z"/>
        <path fill="#1F71B8" d="M276.024,562.604v-0.73c1.119,0,1.945-0.207,2.482-0.623c0.535-0.412,0.535-1.23,0-2.451l-4.526-11.119
			h-21.974l-4.086,10.242c-0.537,1.268-0.695,2.244-0.477,2.926c0.221,0.686,1.108,1.025,2.666,1.025v0.73H239.89v-0.73
			c0.584-0.049,1.082-0.219,1.496-0.512s0.779-0.635,1.096-1.025s0.584-0.83,0.803-1.316s0.426-0.975,0.621-1.463l18.688-44.992
			h4.016l19.418,46.895c0.533,1.316,1.58,2.121,3.139,2.414v0.73H276.024z M263.104,520.248l-9.637,23.848h19.271L263.104,520.248z"
        />
        <path fill="#1F71B8" d="M340.556,562.604v-0.73c0.779,0,1.412-0.037,1.898-0.109c0.488-0.074,0.863-0.23,1.133-0.477
			c0.266-0.244,0.449-0.596,0.547-1.061c0.098-0.463,0.145-1.109,0.145-1.939v-39.504l-18.688,43.82h-2.482l-18.688-42.867v36.648
			c0,0.928,0.012,1.732,0.037,2.414c0.023,0.684,0.146,1.256,0.365,1.721c0.219,0.463,0.584,0.805,1.094,1.023
			c0.51,0.221,1.279,0.33,2.301,0.33v0.73h-11.754v-0.73c1.021,0,1.813-0.109,2.373-0.33c0.559-0.219,0.949-0.549,1.168-0.988
			s0.34-0.998,0.365-1.682c0.023-0.682,0.037-1.512,0.037-2.488v-38.992c0-0.879-0.063-1.561-0.184-2.047
			c-0.123-0.488-0.328-0.84-0.621-1.061c-0.291-0.219-0.693-0.355-1.203-0.402c-0.512-0.047-1.156-0.072-1.936-0.072v-0.732h11.389
			l17.738,40.527l17.229-40.527h11.17v0.732c-0.781,0-1.4,0.035-1.863,0.107c-0.463,0.074-0.814,0.234-1.057,0.475
			c-0.244,0.246-0.402,0.613-0.475,1.1c-0.074,0.488-0.109,1.123-0.109,1.9v40.895c0,0.83,0.035,1.477,0.109,1.939
			c0.072,0.465,0.23,0.816,0.475,1.061c0.242,0.246,0.594,0.402,1.057,0.477c0.463,0.072,1.082,0.109,1.863,0.109v0.73H340.556z"/>
        <path fill="#1F71B8" d="M398.228,562.604v-0.73c1.117,0,1.943-0.207,2.48-0.623c0.535-0.412,0.535-1.23,0-2.451l-4.525-11.119
			H374.21l-4.088,10.242c-0.537,1.268-0.695,2.244-0.475,2.926c0.219,0.686,1.105,1.025,2.664,1.025v0.73h-10.221v-0.73
			c0.584-0.049,1.084-0.219,1.496-0.512c0.414-0.293,0.779-0.635,1.096-1.025s0.584-0.83,0.803-1.316s0.426-0.975,0.621-1.463
			l18.688-44.992h4.016l19.418,46.895c0.535,1.316,1.58,2.121,3.139,2.414v0.73H398.228z M385.304,520.248l-9.635,23.848h19.271
			L385.304,520.248z"/>
        <path fill="#1F71B8" d="M416.548,561.873c0.73,0,1.34-0.023,1.826-0.074c0.486-0.047,0.852-0.195,1.096-0.438
			c0.242-0.244,0.412-0.609,0.51-1.098s0.146-1.146,0.146-1.977v-40.895c0-0.826-0.049-1.486-0.146-1.975
			c-0.098-0.486-0.268-0.854-0.51-1.096c-0.244-0.246-0.609-0.393-1.096-0.439s-1.096-0.072-1.826-0.072v-0.732h16.938
			c4.039,0,7.725,0.498,11.059,1.5c3.334,1,6.193,2.523,8.578,4.572c2.383,2.049,4.234,4.635,5.547,7.754
			c1.314,3.121,1.973,6.803,1.973,11.045c0,3.561-0.561,6.893-1.68,9.986c-1.119,3.098-3.064,5.842-5.84,8.23
			c-2.822,2.439-5.986,4.121-9.49,5.049c-3.504,0.926-7.082,1.389-10.732,1.389h-16.352V561.873z M426.331,557.336
			c0,0.439,0.17,0.781,0.512,1.025c0.34,0.244,0.752,0.426,1.24,0.549c0.486,0.123,0.975,0.193,1.459,0.219
			c0.486,0.025,0.852,0.035,1.096,0.035c3.553,0,6.789-0.402,9.709-1.205c2.92-0.805,5.402-2.072,7.445-3.805
			c2.045-1.73,3.625-3.951,4.746-6.656c1.119-2.709,1.678-5.963,1.678-9.768c0-3.607-0.535-6.74-1.605-9.4
			c-1.07-2.656-2.59-4.865-4.563-6.621c-1.971-1.756-4.355-3.059-7.154-3.912c-2.799-0.852-5.924-1.283-9.379-1.283
			c-0.877,0-1.777,0.076-2.703,0.223c-0.924,0.145-1.75,0.512-2.48,1.096V557.336z"/>
        <path fill="#1F71B8" d="M497.36,562.604v-0.73c1.117,0,1.945-0.207,2.48-0.623c0.535-0.412,0.535-1.23,0-2.451l-4.525-11.119
			h-21.973l-4.088,10.242c-0.535,1.268-0.693,2.244-0.475,2.926c0.219,0.686,1.105,1.025,2.664,1.025v0.73h-10.221v-0.73
			c0.584-0.049,1.084-0.219,1.498-0.512c0.412-0.293,0.777-0.635,1.094-1.025c0.318-0.391,0.584-0.83,0.803-1.316
			c0.221-0.486,0.426-0.975,0.621-1.463l18.688-44.992h4.016l19.418,46.895c0.535,1.316,1.58,2.121,3.139,2.414v0.73H497.36z
			 M484.438,520.248l-9.637,23.848h19.271L484.438,520.248z"/>
	</g>
    <g>
		<path fill="#1F71B8" d="M233.716,612.625c-0.342,0.213-0.51,0.555-0.51,1.023v9.533c-0.143,0.191-0.348,0.359-0.617,0.51
			c-0.27,0.154-0.559,0.297-0.863,0.426c-0.305,0.131-0.611,0.236-0.916,0.316c-0.307,0.084-0.564,0.158-0.775,0.23
			c-2.277,0.635-4.475,0.865-6.588,0.688c-2.113-0.174-3.988-0.76-5.621-1.748c-1.631-0.986-2.941-2.377-3.926-4.164
			c-0.988-1.787-1.48-3.965-1.48-6.533c0-1.762,0.293-3.4,0.879-4.906c0.588-1.506,1.416-2.807,2.484-3.9
			c1.068-1.096,2.344-1.953,3.824-2.578c1.479-0.623,3.111-0.936,4.896-0.936c1.387,0,2.795,0.166,4.229,0.494
			c0.047,0.023,0.197,0.072,0.457,0.141c0.258,0.072,0.535,0.141,0.828,0.213c0.293,0.07,0.674,0.164,1.145,0.281
			c0.164-0.023,0.328-0.088,0.492-0.193c0.166-0.105,0.26-0.254,0.283-0.441h0.422c0,0.26-0.006,0.631-0.018,1.111
			c-0.01,0.482-0.029,0.986-0.053,1.502c-0.023,0.518-0.059,1.006-0.105,1.465c-0.047,0.457-0.117,0.795-0.211,1.006
			c0.023,0.049,0.047,0.09,0.07,0.123c0.023,0.035,0.047,0.076,0.07,0.125l-0.141-0.248c-0.729-1.271-1.686-2.23-2.871-2.877
			c-1.186-0.648-2.52-0.971-3.998-0.971c-1.621,0-3.025,0.287-4.211,0.865c-1.186,0.576-2.174,1.363-2.959,2.363
			c-0.787,1.002-1.369,2.166-1.744,3.496c-0.377,1.332-0.564,2.738-0.564,4.221c0,1.389,0.195,2.727,0.582,4.023
			c0.387,1.295,1.063,2.471,2.025,3.529c0.939,1.037,2.01,1.773,3.205,2.207c1.199,0.438,2.479,0.654,3.842,0.654
			c0.281,0,0.674-0.025,1.18-0.072s1.01-0.121,1.516-0.227c0.504-0.107,0.975-0.254,1.41-0.443c0.434-0.188,0.732-0.434,0.896-0.74
			v-8.404c0-0.398-0.07-0.691-0.211-0.883c-0.141-0.188-0.33-0.316-0.563-0.387c-0.236-0.07-0.494-0.1-0.775-0.088
			c-0.283,0.012-0.576,0.018-0.883,0.018v-0.494h7.012v0.352C234.438,612.307,234.056,612.412,233.716,612.625z M232.112,606.412
			c-0.023-0.049-0.047-0.09-0.07-0.125c-0.023-0.033-0.047-0.074-0.07-0.123L232.112,606.412z"/>
        <path fill="#1F71B8" d="M249.657,625.088l-0.316-0.07l-0.035-3.07c-0.682,1.059-1.439,1.881-2.273,2.469s-1.896,0.883-3.188,0.883
			c-1.715,0-2.988-0.521-3.822-1.568c-0.834-1.049-1.252-2.385-1.252-4.008V609.66c0-0.541-0.088-0.883-0.264-1.025
			c-0.176-0.141-0.498-0.209-0.969-0.209v-0.285h3.84l-0.07,11.227c0,0.99,0.188,1.789,0.564,2.402
			c0.375,0.613,0.857,1.049,1.443,1.307c0.588,0.26,1.215,0.354,1.885,0.281c0.67-0.07,1.299-0.281,1.885-0.635
			c0.588-0.352,1.074-0.842,1.463-1.465c0.387-0.623,0.582-1.359,0.582-2.205v-9.393c0-0.588-0.123-0.943-0.371-1.059
			c-0.246-0.119-0.615-0.176-1.109-0.176v-0.285h4.088l-0.072,14.793c0,0.473,0.088,0.754,0.266,0.848
			c0.176,0.096,0.463,0.141,0.863,0.141v0.285L249.657,625.088z"/>
        <path fill="#1F71B8" d="M269.915,624.17c-0.611,0.377-1.156,0.652-1.639,0.828c-0.48,0.18-0.887,0.207-1.215,0.09
			s-0.588-0.389-0.775-0.811c-0.188-0.426-0.293-1.049-0.316-1.871c-0.682,0.848-1.479,1.547-2.396,2.098
			c-0.916,0.555-1.926,0.832-3.029,0.832c-0.658,0-1.268-0.102-1.832-0.301c-0.563-0.199-1.057-0.494-1.479-0.881
			c-0.424-0.391-0.758-0.854-1.006-1.396c-0.246-0.543-0.369-1.152-0.369-1.834c0-0.707,0.129-1.326,0.387-1.855
			s0.6-0.988,1.021-1.377c0.424-0.389,0.916-0.729,1.48-1.025c0.564-0.293,1.15-0.568,1.762-0.828c1.01-0.447,1.938-0.748,2.783-0.9
			c0.846-0.15,1.703-0.371,2.572-0.652v-1.73c0-0.59-0.129-1.107-0.389-1.555c-0.258-0.445-0.592-0.811-1.004-1.092
			c-0.41-0.285-0.881-0.496-1.408-0.639c-0.529-0.141-1.053-0.211-1.568-0.211c-0.281,0-0.588,0.053-0.916,0.158
			c-0.328,0.107-0.658,0.242-0.986,0.406c-0.33,0.166-0.646,0.35-0.951,0.547c-0.307,0.203-0.576,0.385-0.811,0.551l-0.318-0.213
			c0.236-0.26,0.471-0.502,0.707-0.725c0.234-0.223,0.48-0.43,0.738-0.617c0.611-0.471,1.229-0.824,1.85-1.061
			c0.623-0.234,1.311-0.354,2.063-0.354c1.783,0,3.141,0.447,4.068,1.342c0.928,0.896,1.393,2.248,1.393,4.061v8.648
			c0,0.121,0.004,0.297,0.016,0.531c0.012,0.236,0.043,0.484,0.09,0.742c0.047,0.26,0.117,0.48,0.211,0.67
			c0.092,0.189,0.223,0.283,0.387,0.283c0.141,0,0.299-0.037,0.477-0.107c0.176-0.07,0.322-0.162,0.439-0.281L269.915,624.17z
			 M263.681,616.191c-0.541,0.141-1.111,0.305-1.709,0.496c-0.6,0.186-1.158,0.439-1.674,0.756
			c-0.518,0.318-0.941,0.709-1.268,1.164c-0.33,0.461-0.494,1.033-0.494,1.715c0,0.801,0.182,1.436,0.547,1.904
			c0.363,0.473,0.814,0.795,1.355,0.973c0.539,0.178,1.127,0.219,1.762,0.125c0.633-0.096,1.221-0.303,1.762-0.621
			c0.539-0.316,0.992-0.734,1.355-1.252c0.365-0.518,0.547-1.117,0.547-1.799v-4.025L263.681,616.191z"/>
        <path fill="#1F71B8" d="M284.218,625.123v-2.576c-1.174,1.836-2.805,2.752-4.896,2.752c-1.268,0-2.348-0.229-3.24-0.688
			c-0.895-0.457-1.621-1.078-2.184-1.854c-0.564-0.777-0.982-1.682-1.252-2.717c-0.271-1.037-0.406-2.121-0.406-3.25
			s0.146-2.234,0.441-3.318c0.293-1.084,0.746-2.049,1.355-2.896c0.611-0.846,1.379-1.529,2.309-2.047
			c0.928-0.518,2.014-0.777,3.258-0.777c1.975,0,3.512,0.813,4.615,2.438v-7.945c0-0.188-0.006-0.404-0.018-0.652
			c-0.01-0.246-0.146-0.395-0.404-0.439c-0.141-0.025-0.281-0.033-0.424-0.021c-0.139,0.014-0.293-0.004-0.457-0.051v-0.355
			c0.164-0.045,0.453-0.121,0.863-0.227c0.412-0.107,0.84-0.213,1.285-0.318c0.447-0.105,1.012-0.229,1.691-0.371V622.9
			c0,0.473,0.123,0.74,0.369,0.813c0.248,0.068,0.57,0.094,0.971,0.068v0.283L284.218,625.123z M284.185,614.707
			c0-1.223-0.23-2.264-0.689-3.123c-0.457-0.859-1.033-1.5-1.725-1.924c-0.693-0.424-1.439-0.625-2.236-0.602
			c-0.801,0.023-1.545,0.283-2.238,0.779c-0.693,0.492-1.268,1.252-1.727,2.275s-0.688,2.313-0.688,3.865
			c0,1.674,0.229,3.049,0.688,4.131c0.459,1.084,1.033,1.902,1.727,2.455c0.693,0.551,1.438,0.865,2.238,0.936
			c0.797,0.07,1.543-0.066,2.236-0.406c0.691-0.342,1.268-0.871,1.725-1.588c0.459-0.721,0.689-1.596,0.689-2.633V614.707z"/>
        <path fill="#1F71B8" d="M304.724,624.17c-0.611,0.377-1.158,0.652-1.641,0.828c-0.482,0.18-0.885,0.207-1.215,0.09
			s-0.588-0.389-0.773-0.811c-0.189-0.426-0.297-1.049-0.318-1.871c-0.682,0.848-1.48,1.547-2.396,2.098
			c-0.914,0.555-1.924,0.832-3.029,0.832c-0.658,0-1.268-0.102-1.832-0.301s-1.057-0.494-1.479-0.881
			c-0.424-0.391-0.758-0.854-1.006-1.396c-0.246-0.543-0.369-1.152-0.369-1.834c0-0.707,0.129-1.326,0.387-1.855
			s0.6-0.988,1.021-1.377c0.424-0.389,0.918-0.729,1.482-1.025c0.563-0.293,1.148-0.568,1.76-0.828
			c1.01-0.447,1.938-0.748,2.783-0.9c0.846-0.15,1.703-0.371,2.572-0.652v-1.73c0-0.59-0.131-1.107-0.387-1.555
			c-0.26-0.445-0.594-0.811-1.006-1.092c-0.41-0.285-0.881-0.496-1.408-0.639c-0.527-0.141-1.053-0.211-1.568-0.211
			c-0.283,0-0.588,0.053-0.916,0.158c-0.328,0.107-0.658,0.242-0.986,0.406c-0.33,0.166-0.646,0.35-0.951,0.547
			c-0.307,0.203-0.576,0.385-0.811,0.551l-0.318-0.213c0.236-0.26,0.471-0.502,0.707-0.725c0.234-0.223,0.48-0.43,0.738-0.617
			c0.611-0.471,1.227-0.824,1.85-1.061c0.623-0.234,1.309-0.354,2.063-0.354c1.783,0,3.141,0.447,4.068,1.342
			c0.928,0.896,1.393,2.248,1.393,4.061v8.648c0,0.121,0.004,0.297,0.018,0.531c0.012,0.236,0.041,0.484,0.088,0.742
			c0.047,0.26,0.115,0.48,0.209,0.67c0.096,0.189,0.225,0.283,0.389,0.283c0.141,0,0.299-0.037,0.477-0.107
			c0.176-0.07,0.322-0.162,0.441-0.281L304.724,624.17z M298.487,616.191c-0.543,0.141-1.111,0.305-1.709,0.496
			c-0.6,0.186-1.158,0.439-1.674,0.756c-0.518,0.318-0.941,0.709-1.268,1.164c-0.33,0.461-0.494,1.033-0.494,1.715
			c0,0.801,0.182,1.436,0.547,1.904c0.363,0.473,0.814,0.795,1.355,0.973c0.539,0.178,1.127,0.219,1.762,0.125
			c0.635-0.096,1.221-0.303,1.762-0.621c0.541-0.316,0.992-0.734,1.355-1.252c0.365-0.518,0.547-1.117,0.547-1.799v-4.025
			L298.487,616.191z"/>
        <path fill="#1F71B8" d="M307.399,624.947v-0.283c0.635,0,1.051-0.076,1.25-0.23c0.201-0.15,0.299-0.568,0.299-1.252v-21.113
			c0-0.354-0.021-0.613-0.068-0.775c-0.047-0.166-0.137-0.268-0.266-0.301c-0.129-0.035-0.293-0.035-0.494,0
			c-0.199,0.033-0.451,0.053-0.756,0.053v-0.742c0.162-0.047,0.445-0.127,0.846-0.246c0.398-0.117,0.814-0.232,1.25-0.338
			c0.436-0.104,0.846-0.188,1.232-0.246c0.389-0.057,0.654-0.064,0.793-0.016v23.83c0,0.52,0.152,0.877,0.459,1.078
			c0.305,0.197,0.727,0.299,1.27,0.299v0.283H307.399z"/>
        <path fill="#1F71B8" d="M330.054,624.17c-0.613,0.377-1.156,0.652-1.639,0.828c-0.482,0.18-0.887,0.207-1.215,0.09
			c-0.33-0.117-0.588-0.389-0.775-0.811c-0.188-0.426-0.295-1.049-0.318-1.871c-0.68,0.848-1.479,1.547-2.395,2.098
			c-0.916,0.555-1.926,0.832-3.031,0.832c-0.658,0-1.266-0.102-1.83-0.301s-1.059-0.494-1.48-0.881
			c-0.422-0.391-0.758-0.854-1.004-1.396s-0.369-1.152-0.369-1.834c0-0.707,0.129-1.326,0.387-1.855s0.6-0.988,1.02-1.377
			c0.426-0.389,0.918-0.729,1.482-1.025c0.563-0.293,1.15-0.568,1.762-0.828c1.008-0.447,1.936-0.748,2.781-0.9
			c0.848-0.15,1.705-0.371,2.572-0.652v-1.73c0-0.59-0.129-1.107-0.385-1.555c-0.262-0.445-0.596-0.811-1.006-1.092
			c-0.412-0.285-0.881-0.496-1.408-0.639c-0.529-0.141-1.053-0.211-1.57-0.211c-0.281,0-0.586,0.053-0.914,0.158
			c-0.33,0.107-0.658,0.242-0.988,0.406c-0.328,0.166-0.645,0.35-0.949,0.547c-0.307,0.203-0.576,0.385-0.811,0.551l-0.318-0.213
			c0.234-0.26,0.471-0.502,0.707-0.725c0.232-0.223,0.479-0.43,0.738-0.617c0.611-0.471,1.227-0.824,1.848-1.061
			c0.623-0.234,1.311-0.354,2.063-0.354c1.785,0,3.141,0.447,4.07,1.342c0.926,0.896,1.391,2.248,1.391,4.061v8.648
			c0,0.121,0.004,0.297,0.018,0.531c0.012,0.236,0.041,0.484,0.088,0.742c0.047,0.26,0.117,0.48,0.211,0.67s0.225,0.283,0.389,0.283
			c0.141,0,0.299-0.037,0.477-0.107c0.174-0.07,0.32-0.162,0.438-0.281L330.054,624.17z M323.817,616.191
			c-0.541,0.141-1.109,0.305-1.709,0.496c-0.6,0.186-1.156,0.439-1.672,0.756c-0.52,0.318-0.941,0.709-1.268,1.164
			c-0.332,0.461-0.496,1.033-0.496,1.715c0,0.801,0.182,1.436,0.547,1.904c0.365,0.473,0.816,0.795,1.355,0.973
			c0.541,0.178,1.129,0.219,1.764,0.125c0.633-0.096,1.221-0.303,1.76-0.621c0.541-0.316,0.992-0.734,1.357-1.252
			s0.545-1.117,0.545-1.799v-4.025L323.817,616.191z"/>
        <path fill="#1F71B8" d="M329.437,630.932c0.105-0.201,0.229-0.359,0.369-0.477c0.141-0.119,0.299-0.193,0.477-0.23
			c0.174-0.035,0.369,0.018,0.582,0.158c0.141,0.119,0.262,0.258,0.369,0.424c0.104,0.164,0.211,0.322,0.318,0.479
			c0.104,0.152,0.232,0.293,0.385,0.422c0.154,0.131,0.346,0.195,0.582,0.195c0.494,0.023,0.869-0.158,1.127-0.547
			s0.447-0.854,0.566-1.396c0.115-0.541,0.18-1.088,0.191-1.641c0.014-0.553,0.018-0.982,0.018-1.289v-16.594
			c0-0.352-0.023-0.611-0.07-0.775c-0.045-0.164-0.135-0.266-0.264-0.301s-0.295-0.035-0.494,0s-0.439,0.064-0.721,0.088v-0.354
			l3.416-1.199l0.67,0.035v17.83c0,1.457-0.176,2.646-0.529,3.564c-0.35,0.918-0.803,1.631-1.355,2.135
			c-0.553,0.51-1.152,0.836-1.799,0.992c-0.645,0.15-1.248,0.197-1.813,0.139c-0.564-0.061-1.057-0.191-1.48-0.406
			c-0.422-0.211-0.668-0.447-0.74-0.703C329.267,631.314,329.331,631.129,329.437,630.932z M336.534,602.951
			c-0.305,0.26-0.645,0.387-1.021,0.387c-0.375,0-0.715-0.127-1.021-0.387c-0.305-0.258-0.457-0.658-0.457-1.199
			c0-0.518,0.152-0.912,0.457-1.186c0.307-0.27,0.646-0.406,1.021-0.406c0.377,0,0.717,0.131,1.021,0.389
			c0.307,0.264,0.459,0.66,0.459,1.203C336.993,602.293,336.841,602.693,336.534,602.951z"/>
        <path fill="#1F71B8" d="M355.313,624.17c-0.611,0.377-1.158,0.652-1.639,0.828c-0.48,0.18-0.887,0.207-1.215,0.09
			c-0.33-0.117-0.588-0.389-0.775-0.811c-0.188-0.426-0.293-1.049-0.316-1.871c-0.682,0.848-1.479,1.547-2.396,2.098
			c-0.914,0.555-1.926,0.832-3.029,0.832c-0.658,0-1.268-0.102-1.832-0.301s-1.057-0.494-1.48-0.881
			c-0.422-0.391-0.758-0.854-1.004-1.396c-0.248-0.543-0.369-1.152-0.369-1.834c0-0.707,0.129-1.326,0.387-1.855
			s0.6-0.988,1.023-1.377c0.42-0.389,0.914-0.729,1.479-1.025c0.564-0.293,1.15-0.568,1.762-0.828c1.01-0.447,1.936-0.748,2.783-0.9
			c0.844-0.15,1.703-0.371,2.572-0.652v-1.73c0-0.59-0.131-1.107-0.387-1.555c-0.26-0.445-0.594-0.811-1.006-1.092
			c-0.41-0.285-0.881-0.496-1.408-0.639c-0.529-0.141-1.053-0.211-1.568-0.211c-0.281,0-0.588,0.053-0.916,0.158
			c-0.33,0.107-0.658,0.242-0.986,0.406c-0.33,0.166-0.648,0.35-0.953,0.547c-0.305,0.203-0.574,0.385-0.811,0.551l-0.314-0.213
			c0.234-0.26,0.469-0.502,0.703-0.725s0.482-0.43,0.74-0.617c0.611-0.471,1.227-0.824,1.85-1.061
			c0.623-0.234,1.311-0.354,2.061-0.354c1.785,0,3.141,0.447,4.07,1.342c0.926,0.896,1.393,2.248,1.393,4.061v8.648
			c0,0.121,0.004,0.297,0.016,0.531c0.012,0.236,0.041,0.484,0.088,0.742c0.047,0.26,0.117,0.48,0.211,0.67s0.225,0.283,0.387,0.283
			c0.143,0,0.301-0.037,0.479-0.107c0.176-0.07,0.322-0.162,0.439-0.281L355.313,624.17z M349.077,616.191
			c-0.539,0.141-1.111,0.305-1.707,0.496c-0.602,0.186-1.158,0.439-1.676,0.756c-0.514,0.318-0.939,0.709-1.268,1.164
			c-0.328,0.461-0.494,1.033-0.494,1.715c0,0.801,0.184,1.436,0.547,1.904c0.365,0.473,0.816,0.795,1.355,0.973
			c0.541,0.178,1.129,0.219,1.762,0.125c0.635-0.096,1.223-0.303,1.764-0.621c0.539-0.316,0.992-0.734,1.355-1.252
			s0.547-1.117,0.547-1.799v-4.025L349.077,616.191z"/>
        <path fill="#1F71B8" d="M363.31,624.947h-5.637v-0.283c0.611,0,0.998-0.09,1.164-0.264c0.164-0.178,0.244-0.584,0.244-1.219
			v-12.887c0-0.377-0.021-0.641-0.068-0.793c-0.049-0.152-0.125-0.242-0.229-0.266c-0.105-0.023-0.246-0.031-0.424-0.02
			c-0.176,0.014-0.395-0.016-0.652-0.088v-0.174l3.137-1.061l0.67,0.035v3.566c0.211-0.447,0.463-0.896,0.758-1.344
			c0.291-0.447,0.621-0.846,0.984-1.197c0.365-0.354,0.775-0.645,1.232-0.867c0.459-0.223,0.969-0.336,1.533-0.336
			c0.33,0,0.676,0.096,1.039,0.285c0.365,0.186,0.57,0.482,0.617,0.883c0,0.115-0.006,0.268-0.018,0.457s-0.053,0.383-0.123,0.58
			c-0.07,0.203-0.164,0.385-0.281,0.551c-0.119,0.164-0.271,0.283-0.457,0.352c-0.236,0.07-0.42,0.029-0.547-0.123
			c-0.131-0.152-0.252-0.336-0.371-0.547c-0.117-0.211-0.252-0.418-0.406-0.619c-0.152-0.199-0.357-0.301-0.615-0.301
			c-0.236,0-0.486,0.084-0.758,0.248c-0.27,0.164-0.535,0.367-0.793,0.6c-0.258,0.236-0.492,0.482-0.703,0.742
			c-0.213,0.26-0.377,0.482-0.494,0.672c-0.33,0.496-0.492,1.023-0.492,1.588c0,0.543,0,1.082,0,1.625v8.543
			c0,0.354,0.029,0.625,0.086,0.813c0.059,0.189,0.152,0.322,0.283,0.404c0.129,0.084,0.299,0.131,0.51,0.143
			c0.213,0.012,0.48,0.018,0.811,0.018V624.947z"/>
        <path fill="#1F71B8" d="M383.251,624.17c-0.611,0.377-1.158,0.652-1.639,0.828c-0.482,0.18-0.887,0.207-1.217,0.09
			c-0.328-0.117-0.586-0.389-0.773-0.811c-0.188-0.426-0.293-1.049-0.316-1.871c-0.682,0.848-1.48,1.547-2.396,2.098
			c-0.916,0.555-1.926,0.832-3.029,0.832c-0.66,0-1.27-0.102-1.832-0.301c-0.564-0.199-1.057-0.494-1.479-0.881
			c-0.426-0.391-0.758-0.854-1.006-1.396c-0.246-0.543-0.371-1.152-0.371-1.834c0-0.707,0.129-1.326,0.389-1.855
			c0.258-0.529,0.6-0.988,1.021-1.377c0.424-0.389,0.916-0.729,1.48-1.025c0.564-0.293,1.15-0.568,1.762-0.828
			c1.01-0.447,1.936-0.748,2.783-0.9c0.846-0.15,1.703-0.371,2.57-0.652v-1.73c0-0.59-0.129-1.107-0.387-1.555
			c-0.26-0.445-0.594-0.811-1.004-1.092c-0.412-0.285-0.881-0.496-1.41-0.639c-0.527-0.141-1.051-0.211-1.568-0.211
			c-0.279,0-0.586,0.053-0.914,0.158c-0.33,0.107-0.658,0.242-0.988,0.406c-0.33,0.166-0.645,0.35-0.949,0.547
			c-0.307,0.203-0.576,0.385-0.811,0.551l-0.318-0.213c0.236-0.26,0.471-0.502,0.705-0.725s0.482-0.43,0.738-0.617
			c0.613-0.471,1.23-0.824,1.85-1.061c0.623-0.234,1.311-0.354,2.064-0.354c1.783,0,3.139,0.447,4.068,1.342
			c0.928,0.896,1.391,2.248,1.391,4.061v8.648c0,0.121,0.006,0.297,0.02,0.531c0.01,0.236,0.039,0.484,0.086,0.742
			c0.047,0.26,0.117,0.48,0.211,0.67s0.225,0.283,0.389,0.283c0.141,0,0.299-0.037,0.475-0.107c0.178-0.07,0.322-0.162,0.441-0.281
			L383.251,624.17z M377.017,616.191c-0.543,0.141-1.111,0.305-1.711,0.496c-0.598,0.186-1.156,0.439-1.674,0.756
			c-0.516,0.318-0.941,0.709-1.268,1.164c-0.328,0.461-0.492,1.033-0.492,1.715c0,0.801,0.182,1.436,0.547,1.904
			c0.361,0.473,0.814,0.795,1.354,0.973c0.541,0.178,1.129,0.219,1.762,0.125c0.635-0.096,1.221-0.303,1.762-0.621
			c0.539-0.316,0.994-0.734,1.357-1.252c0.365-0.518,0.545-1.117,0.545-1.799v-4.025L377.017,616.191z"/>
	</g>
    <g>
		<path fill="#1F71B8" d="M260.326,242.304c1.574,0.832,3.283,0.978,5.126,0.438c1.852-0.542,3.22-1.602,4.104-3.18
			c0.884-1.578,1.063-3.27,0.534-5.08c-0.514-1.762-1.564-3.063-3.153-3.903c-1.589-0.838-3.286-0.996-5.09-0.467
			c-1.899,0.556-3.286,1.609-4.161,3.157c-0.876,1.548-1.045,3.248-0.505,5.098C257.704,240.16,258.753,241.473,260.326,242.304z"/>
        <path fill="#1F71B8" d="M342.398,461.93l-2.368,0.979l2.061,5.014l2.506-1.035c0.931-0.385,1.558-0.902,1.881-1.551
			c0.322-0.646,0.316-1.379-0.021-2.197C345.781,461.496,344.428,461.092,342.398,461.93z"/>
        <polygon fill="#1F71B8" points="228.79,254.551 222.845,251.13 224.447,257.728 		"/>
        <path fill="#1F71B8" d="M192.509,291.704c1.551,1.038,3.196,1.368,4.935,0.992c1.739-0.377,3.142-1.366,4.208-2.967
			c1.07-1.607,1.439-3.3,1.104-5.078c-0.334-1.777-1.282-3.189-2.847-4.236c-1.525-1.019-3.164-1.339-4.921-0.958
			c-1.756,0.379-3.155,1.353-4.198,2.92c-1.099,1.649-1.486,3.349-1.164,5.099S190.909,290.635,192.509,291.704z"/>
        <polygon fill="#1F71B8" points="177.977,311.91 183.027,316.436 184.81,311.353 		"/>
        <polygon fill="#1F71B8" points="257.132,471.582 262.245,473.244 261.526,466.412 		"/>
        <polygon fill="#1F71B8" points="205.356,436.59 208.343,430.404 201.89,432.471 		"/>
        <path fill="#1F71B8" d="M190.458,402.132c0.232-0.594,0.368-1.221,0.405-1.881c0.036-0.662-0.003-1.258-0.119-1.792
			c-0.116-0.532-0.396-1.351-0.839-2.456l-1.155-2.876l-11.931,4.81l1.184,2.946c0.461,1.149,0.898,2.011,1.311,2.586
			c0.413,0.573,0.825,1.024,1.237,1.353c0.412,0.328,0.865,0.597,1.358,0.808c1.604,0.673,3.283,0.655,5.035-0.051
			C188.667,404.885,189.838,403.737,190.458,402.132z"/>
        <path fill="#1F71B8" d="M409.148,300.015c0.397,0.327,0.848,0.51,1.352,0.554c0.503,0.044,1.003-0.055,1.5-0.298
			c0.489-0.239,0.869-0.587,1.139-1.041c0.271-0.454,0.371-0.957,0.306-1.508c-0.067-0.552-0.366-1.375-0.898-2.466l-0.325-0.668
			l-4.905,2.398l0.412,0.846C408.277,298.962,408.751,299.689,409.148,300.015z"/>
        <polygon fill="#1F71B8" points="418.525,313.48 411.766,313.002 413.463,318.115 		"/>
        <path fill="#1F71B8" d="M309.818,230.421c0.577-0.434,0.899-1.093,0.962-1.976c0.129-1.773-0.902-2.739-3.091-2.898l-2.557-0.185
			l-0.39,5.407l2.703,0.196C308.45,231.038,309.241,230.856,309.818,230.421z"/>
        <polygon fill="#1F71B8" points="407.66,411.846 400.826,411.286 405.079,416.573 		"/>
        <path fill="#1F71B8" d="M297.93,209.968c-79.366,0-143.706,64.475-143.706,144.012c0,79.534,64.34,144.01,143.706,144.01
			c79.367,0,143.705-64.477,143.705-144.01C441.635,274.443,377.297,209.968,297.93,209.968z M414.926,295.335
			c0.767,1.574,0.986,3.016,0.658,4.321c-0.328,1.306-1.156,2.284-2.483,2.933c-0.904,0.442-1.798,0.598-2.678,0.467
			c-0.881-0.13-1.69-0.54-2.43-1.228c-0.084,0.658-0.292,1.363-0.624,2.114c-0.332,0.751-0.988,1.901-1.97,3.448
			c-0.618,0.974-1.071,1.733-1.356,2.277l-0.164,0.316l17.984,1.488l0.549,1.653l-14.052,12.876l-0.8-2.41l4.134-3.812l-2.329-7.015
			l-5.545-0.433l-0.452-1.363l-0.036,0.069l-1.292-2.653l0.693-1.179c0.026-0.041,0.068-0.116,0.124-0.227l0.401-0.734l0.799-1.245
			l0.85-1.34c0.414-0.772,0.717-1.441,0.908-2.008c0.19-0.568,0.294-1.047,0.311-1.438c0.016-0.39-0.153-0.95-0.509-1.68
			l-0.281-0.579l-6.764,3.307l-1.086-2.23l15.54-7.599L414.926,295.335z M438.015,353.917c-9.958,9.977-26.069,9.977-36.026,0
			C411.945,343.941,428.057,343.941,438.015,353.917z M405.965,279.549c1.514,2.207,2.076,4.524,1.689,6.951
			c-0.388,2.428-1.632,4.365-3.733,5.813c-2.101,1.447-4.348,1.905-6.74,1.373c-2.394-0.534-4.362-1.926-5.908-4.18
			c-1.477-2.152-2.018-4.419-1.623-6.801c0.393-2.382,1.627-4.288,3.701-5.716c2.128-1.466,4.384-1.958,6.769-1.474
			C402.503,275.998,404.451,277.343,405.965,279.549z M390.053,260.706l9.698,10.726l-1.632,1.483l-4.047-4.476l-11.198,10.169
			l-1.672-1.848l11.199-10.169l-3.981-4.402L390.053,260.706z M383.444,254.535c1.39,1.171,2.627,2.836,3.715,4.996l-1.713,2.041
			c-0.804-2.19-1.943-3.908-3.422-5.153c-1.516-1.278-3.176-1.858-4.98-1.743c-1.806,0.115-3.314,0.894-4.525,2.336
			c-1.222,1.456-1.732,3.067-1.534,4.833c0.2,1.768,1.065,3.298,2.601,4.591c1.604,1.352,3.585,2.178,5.941,2.479l-1.752,2.088
			c-2.027-0.412-3.951-1.384-5.768-2.917c-1.479-1.246-2.482-2.6-3.014-4.063c-0.529-1.462-0.656-2.968-0.379-4.518
			c0.276-1.55,0.924-2.932,1.944-4.147c1.62-1.93,3.669-2.975,6.146-3.133C379.184,252.068,381.43,252.837,383.444,254.535z
			 M373.349,246.751l-1.197,1.854l-6.151-3.99l-2.865,4.436l5.943,3.854l-1.204,1.864l-5.943-3.855l-2.918,4.519l6.348,4.118
			l-1.196,1.854l-8.426-5.465l9.382-14.525L373.349,246.751z M348.498,235.267l0.978-1.979l12.944,6.422l-0.978,1.979l-5.401-2.68
			l-6.704,13.573l-2.23-1.106l6.704-13.573L348.498,235.267z M328.043,235.024c0.822-2.453,2.331-4.204,4.528-5.253
			c2.195-1.049,4.561-1.146,7.093-0.294c2.531,0.853,4.371,2.367,5.517,4.54c1.146,2.174,1.313,4.473,0.5,6.894
			c-0.813,2.422-2.335,4.14-4.567,5.156c-2.231,1.015-4.641,1.086-7.228,0.215c-2.471-0.832-4.262-2.318-5.375-4.459
			C327.397,239.681,327.241,237.415,328.043,235.024z M316.83,224.179l4.256,0.81c1.718,0.327,3.001,1.014,3.849,2.059
			c0.848,1.045,1.134,2.295,0.857,3.75c-0.188,0.99-0.598,1.8-1.229,2.429s-1.443,1.034-2.435,1.216
			c0.476,0.461,0.914,1.049,1.314,1.765c0.402,0.716,0.928,1.932,1.577,3.646c0.408,1.08,0.745,1.897,1.01,2.452l0.668,1.39
			l-2.894-0.551l-0.528-1.263c-0.016-0.045-0.052-0.124-0.106-0.234l-0.347-0.761l-0.516-1.386l-0.563-1.484
			c-0.369-0.794-0.725-1.438-1.064-1.932c-0.339-0.493-0.659-0.863-0.962-1.109c-0.302-0.247-0.851-0.445-1.646-0.597l-0.633-0.121
			l-1.405,7.409l-2.433-0.463L316.83,224.179z M302.811,222.981l5.469,0.396c1.646,0.12,2.927,0.66,3.842,1.622
			c0.915,0.961,1.318,2.193,1.21,3.694c-0.072,1.006-0.387,1.879-0.945,2.617c-0.559,0.739-1.287,1.252-2.184,1.54
			c-0.897,0.288-2.161,0.372-3.791,0.253l-1.827-0.132l-0.541,7.497l-2.481-0.18L302.811,222.981z M398.523,353.979
			c0,55.676-45.039,100.808-100.596,100.808c-55.555,0-100.593-45.132-100.593-100.808s45.038-100.807,100.593-100.807
			C353.484,253.172,398.523,298.304,398.523,353.979z M276.628,224.386l13.146,12.003l-1.567-13.367l2.335-0.275l2.019,17.21
			l-2.114,0.249l-13.035-11.902l1.554,13.254l-2.311,0.272l-2.019-17.21L276.628,224.386z M259.781,223.313l2.411-0.706
			l-1.643,4.358l-1.33,0.39L259.781,223.313z M255.441,232.183c1.203-2.118,3.087-3.553,5.651-4.304s4.938-0.563,7.117,0.565
			c2.18,1.127,3.627,2.917,4.343,5.37c0.715,2.452,0.446,4.735-0.807,6.846s-3.189,3.55-5.81,4.317
			c-2.5,0.732-4.818,0.54-6.953-0.58s-3.555-2.889-4.261-5.31C253.998,236.603,254.238,234.301,255.441,232.183z M248.625,232.608
			l6.678,15.983l-2.283,0.958l-6.678-15.983L248.625,232.608z M232.446,243.173c0.761-2.368,2.299-4.18,4.613-5.437
			c1.596-0.866,3.596-1.412,6-1.634l1.268,2.345c-2.328-0.054-4.342,0.381-6.039,1.303c-1.741,0.945-2.89,2.281-3.444,4.005
			c-0.555,1.726-0.385,3.417,0.512,5.076c0.903,1.672,2.212,2.74,3.926,3.201c1.714,0.463,3.452,0.214,5.215-0.742
			c1.843-1,3.336-2.543,4.479-4.631l1.297,2.4c-1.125,1.738-2.732,3.174-4.821,4.308c-1.698,0.922-3.323,1.361-4.875,1.321
			c-1.553-0.042-2.997-0.476-4.334-1.301c-1.339-0.826-2.384-1.936-3.139-3.333C231.903,247.836,231.686,245.542,232.446,243.173z
			 M221.325,247.527l16.515,9.496l-2.046,1.497l-4.883-2.786l-5.959,4.358l1.276,5.424l-2.055,1.503l-4.254-18.464L221.325,247.527z
			 M212.122,255.077l11.473,12.966l-1.853,1.646l-11.472-12.966L212.122,255.077z M202.802,263.708
			c1.232-1.335,2.95-2.496,5.155-3.482l1.952,1.811c-2.221,0.7-3.986,1.761-5.298,3.181c-1.345,1.457-2.003,3.092-1.974,4.904
			s0.734,3.359,2.115,4.64c1.393,1.292,2.975,1.879,4.745,1.764c1.771-0.115,3.337-0.91,4.698-2.385
			c1.424-1.542,2.342-3.484,2.753-5.829l1.998,1.853c-0.507,2.01-1.566,3.888-3.181,5.635c-1.311,1.42-2.708,2.361-4.191,2.822
			c-1.482,0.462-2.989,0.517-4.521,0.167c-1.532-0.35-2.88-1.065-4.042-2.143c-1.848-1.713-2.791-3.813-2.832-6.302
			C200.14,267.856,201.014,265.645,202.802,263.708z M188.778,281.149c1.483-2.227,3.422-3.61,5.814-4.151
			c2.395-0.54,4.651-0.101,6.772,1.317c2.12,1.418,3.378,3.34,3.772,5.765c0.394,2.425-0.166,4.774-1.682,7.049
			c-1.446,2.172-3.347,3.517-5.699,4.034c-2.354,0.518-4.578,0.076-6.67-1.325c-2.148-1.437-3.441-3.354-3.878-5.752
			S187.296,283.376,188.778,281.149z M180.398,296.018c0.636-1.3,1.582-2.313,2.841-3.04l2.522,1.238
			c-1.624,0.593-2.753,1.536-3.384,2.828c-0.355,0.728-0.48,1.408-0.373,2.041c0.107,0.632,0.422,1.077,0.946,1.334
			c0.466,0.229,0.984,0.27,1.56,0.125c0.574-0.146,1.271-0.49,2.092-1.035l1.836-1.208c2.059-1.342,3.963-1.585,5.711-0.727
			c1.246,0.611,2.053,1.525,2.423,2.743c0.369,1.217,0.228,2.494-0.425,3.831c-0.752,1.537-1.908,2.705-3.469,3.505l-2.822-1.386
			c2.109-0.457,3.549-1.476,4.322-3.058c0.342-0.698,0.432-1.374,0.271-2.028c-0.161-0.654-0.533-1.125-1.116-1.411
			c-0.945-0.464-2.176-0.221-3.692,0.729l-1.853,1.19c-1.167,0.744-2.174,1.187-3.02,1.33c-0.845,0.142-1.675,0.013-2.49-0.388
			c-1.223-0.601-2.009-1.513-2.356-2.737C179.576,298.668,179.734,297.377,180.398,296.018z M174.688,309.804l18.976-1.553
			l-0.84,2.396l-5.598,0.477l-2.445,6.975l4.118,3.745l-0.843,2.405l-13.945-12.799L174.688,309.804z M193.239,354.414
			c-9.956,9.977-26.067,9.977-36.024,0C167.172,344.437,183.283,344.437,193.239,354.414z M178.325,405.874
			c-0.481-0.511-0.863-1.003-1.146-1.477c-0.284-0.475-0.712-1.425-1.285-2.851l-2.041-5.087l16.019-6.457l2.175,5.42
			c0.878,2.187,1.245,4.048,1.102,5.585c-0.144,1.538-0.699,2.938-1.668,4.203c-0.969,1.264-2.204,2.199-3.704,2.804
			c-1.072,0.432-2.182,0.637-3.327,0.618c-1.146-0.019-2.245-0.263-3.295-0.73C180.073,407.427,179.13,406.75,178.325,405.874z
			 M189.329,423.82l-1.909,1.104l-5.012-8.717l14.96-8.639l4.894,8.512l-1.909,1.102l-3.658-6.362l-4.568,2.638l3.535,6.147
			l-1.92,1.107l-3.534-6.146l-4.654,2.688L189.329,423.82z M201.899,443.869l2.43-5.076l-4.758-5.65l-5.309,1.656l-1.641-1.947
			l18.079-5.551l1.122,1.332l-8.29,17.176L201.899,443.869z M217.36,458.117l-0.08-17.672l-8.684,10.117l-1.764-1.52l11.274-13.137
			l1.521,1.309l0.082,17.822l8.757-10.203l1.783,1.537l-11.274,13.137L217.36,458.117z M223.985,462.766l9.665-14.367l2.054,1.389
			l-9.665,14.367L223.985,462.766z M243.146,473.928l6.159-11.988l-7.786,3.516l-0.406-0.209l-1.722-8.422l-6.159,11.986
			l-2.201-1.137l7.917-15.404l2.084,1.076l1.856,8.963l8.328-3.707l2.058,1.063l-7.917,15.404L243.146,473.928z M263.143,481.258
			l-0.608-5.598l-7.018-2.283l-3.638,4.215l-2.419-0.787l12.436-14.275l1.652,0.537l2.004,18.975L263.143,481.258z M279.891,484.67
			l-10.089-1.867l3.141-17.041l2.434,0.451l-2.731,14.82l7.655,1.416L279.891,484.67z M295.194,470.76l-7.311-0.514l-0.369,5.27
			l7.062,0.498l-0.155,2.215l-7.062-0.498l-0.376,5.371l7.544,0.529l-0.155,2.203l-10.012-0.705l1.209-17.26l9.779,0.688
			L295.194,470.76z M306.684,484.51c-0.895,0.902-2.085,1.383-3.568,1.439c-1.707,0.064-3.281-0.402-4.724-1.4l-0.118-3.148
			c1.4,1.645,2.978,2.434,4.734,2.367c0.774-0.029,1.413-0.27,1.911-0.721c0.499-0.453,0.736-1.004,0.712-1.654
			c-0.04-1.053-0.837-2.025-2.39-2.912l-1.923-1.074c-1.206-0.678-2.072-1.354-2.598-2.033s-0.806-1.473-0.839-2.383
			c-0.053-1.363,0.378-2.488,1.291-3.375c0.91-0.889,2.121-1.359,3.631-1.416c1.442-0.055,2.781,0.301,4.016,1.066l0.105,2.814
			c-1.289-1.154-2.652-1.703-4.087-1.648c-0.808,0.029-1.465,0.242-1.97,0.637c-0.506,0.395-0.748,0.885-0.726,1.469
			c0.021,0.518,0.229,0.996,0.63,1.434c0.399,0.439,1.033,0.893,1.9,1.357l1.931,1.049c2.155,1.182,3.271,2.746,3.344,4.695
			C307.999,482.461,307.578,483.607,306.684,484.51z M327.683,482.986l-2.488,0.492l-1.777-8.99l-7.847-6.764l2.931-0.582
			l5.697,4.959l3.443-6.773l2.947-0.584l-4.684,9.25L327.683,482.986z M349.17,464.984c-0.17,0.91-0.593,1.693-1.268,2.354
			c-0.675,0.658-1.769,1.301-3.278,1.924l-1.693,0.701l2.857,6.949l-2.301,0.949l-6.597-16.045l5.069-2.092
			c1.525-0.631,2.912-0.721,4.16-0.27c1.247,0.451,2.157,1.371,2.729,2.764C349.232,463.15,349.339,464.072,349.17,464.984z
			 M357.546,471.484l-8.372-15.16l2.166-1.201l7.281,13.186l6.812-3.777l1.091,1.975L357.546,471.484z M380.414,456.756
			l-4.896-2.762l-5.937,4.389l1.302,5.416l-2.047,1.514l-4.345-18.443l1.399-1.033l16.562,9.414L380.414,456.756z M395.676,442.27
			l-17.603-1.072l9.508,9.344l-1.629,1.664l-12.346-12.131l1.404-1.436l17.752,1.082l-9.589-9.424l1.646-1.682l12.346,12.131
			L395.676,442.27z M403.707,432.113l-12.279-8.828l-3.455,4.828l-1.79-1.287l8.419-11.762l1.79,1.287l-3.514,4.908l12.279,8.829
			L403.707,432.113z M415.682,412.451l-5.601-0.439l-3.541,6.485l3.458,4.365l-1.221,2.236l-11.69-14.895l0.835-1.529l18.977,1.55
			L415.682,412.451z M420.089,402.612c-0.622,1.594-1.678,2.854-3.166,3.78l-2.928-1.147c2.063-0.63,3.416-1.764,4.057-3.405
			c0.282-0.724,0.316-1.405,0.102-2.044c-0.214-0.638-0.623-1.076-1.229-1.313c-0.98-0.384-2.186-0.04-3.618,1.032l-1.75,1.339
			c-1.101,0.838-2.066,1.363-2.898,1.574c-0.831,0.211-1.67,0.151-2.515-0.18c-1.268-0.497-2.125-1.341-2.572-2.533
			c-0.447-1.191-0.396-2.493,0.153-3.902c0.525-1.347,1.385-2.435,2.58-3.263l2.616,1.025c-1.57,0.725-2.617,1.758-3.14,3.098
			c-0.295,0.755-0.362,1.443-0.203,2.064c0.158,0.622,0.511,1.039,1.054,1.252c0.482,0.189,1.004,0.187,1.564-0.005
			s1.226-0.593,1.999-1.204l1.729-1.357c1.941-1.508,3.819-1.907,5.633-1.196c1.291,0.506,2.171,1.35,2.64,2.533
			C420.666,399.941,420.63,401.226,420.089,402.612z"/>
        <polygon fill="#1F71B8" points="373.392,452.822 367.43,449.432 369.065,456.021 		"/>
        <path fill="#1F71B8" d="M321.37,232.429c0.498-0.124,0.915-0.375,1.251-0.753c0.337-0.378,0.557-0.839,0.659-1.383
			c0.102-0.536,0.053-1.048-0.149-1.537s-0.542-0.871-1.022-1.148c-0.48-0.276-1.317-0.528-2.51-0.755l-0.729-0.139l-1.02,5.374
			l0.924,0.176C320.007,232.498,320.871,232.554,321.37,232.429z"/>
        <path fill="#1F71B8" d="M334.763,244.169c1.828,0.616,3.557,0.53,5.181-0.257c1.625-0.788,2.737-2.075,3.336-3.862
			c0.584-1.74,0.464-3.41-0.361-5.009c-0.824-1.6-2.128-2.699-3.909-3.299c-1.877-0.632-3.614-0.563-5.217,0.206
			c-1.6,0.77-2.708,2.067-3.32,3.894c-0.594,1.771-0.481,3.449,0.334,5.032C331.623,242.458,332.942,243.556,334.763,244.169z"/>
        <path fill="#1F71B8" d="M392.052,283.329c-0.296,1.758,0.101,3.43,1.188,5.016c1.093,1.593,2.525,2.564,4.297,2.914
			c1.771,0.349,3.432-0.011,4.981-1.079c1.51-1.04,2.414-2.448,2.714-4.223c0.3-1.775-0.083-3.438-1.147-4.99
			c-1.121-1.635-2.553-2.626-4.294-2.975s-3.404,0.021-4.989,1.113C393.265,280.163,392.348,281.572,392.052,283.329z"/>
	</g>
    <g>
		<g>
			<polygon fill="#1F71B8"
                     points="241.465,276.462 228.582,301.945 243.178,334.436 269.219,276.462 			"/>
            <path fill="#1F71B8" d="M325.205,276.52l-5.812,9.857c-5.993-6.098-13.466-9.724-21.573-9.724
				c-7.999,0-15.383,3.523-21.334,9.473l-5.663-9.606l-10.566,23.522l6.354,1.214c-2.852,6.867-4.481,14.769-4.481,23.183
				c0,2.73,0.18,5.403,0.51,8.009c7.026-8.346,20.146-13.966,35.182-13.966s28.152,5.62,35.18,13.964
				c0.33-2.605,0.51-5.277,0.51-8.007c0-8.386-1.618-16.263-4.452-23.114l6.713-1.283L325.205,276.52z"/>
            <polygon fill="#1F71B8"
                     points="354.563,276.462 326.809,276.462 352.849,334.436 367.444,301.945 			"/>
		</g>
        <path fill="#1F71B8" d="M297.718,321.039c-22.443,0-40.637,12.506-40.637,27.935c0,15.429,18.193,27.937,40.637,27.937
			c22.438,0,40.632-12.507,40.632-27.937C338.35,333.544,320.155,321.039,297.718,321.039z M297.747,364.163
			c-7.101,0.027-12.892-6.314-12.896-9.484c-0.016-3.169,5.734-5.764,12.839-5.79c7.11-0.028,12.879,2.521,12.891,5.689
			C310.596,357.75,304.857,364.135,297.747,364.163z"/>
	</g>
    <g>
		<polygon fill="#1F71B8" points="298.549,429.98 304.41,422.629 292.688,422.629 		"/>
        <path fill="#1F71B8" d="M385.402,362.665c-2.546-1.498-5.532-2.264-8.521-2.388c-6.041-0.214-11.911,2.04-16.598,5.952
			c-4.447,3.702-7.896,9.233-8.718,15.186c-0.425,2.963-0.205,6.049,0.804,8.833c0.781,2.091,1.967,4.015,3.512,5.465
			c-11.568-9.026-26.527-15.369-43.254-17.721c-4.692,1.302-9.816,2.026-15.188,2.026c-5.199,0-10.166-0.679-14.735-1.902
			c-27.711,4.127-50.49,19.204-60.789,39.289c12.117,13.996,28.019,24.613,46.108,30.25c-0.351-0.547-0.512-1.1-0.423-1.635
			c0.403-2.447,6.095-6.543,12.113-5.539c6.012,1,10.077,6.723,9.668,9.166c-0.136,0.82-0.823,1.494-1.892,1.994
			c3.432,0.355,6.912,0.545,10.438,0.545c3.536,0,7.027-0.191,10.47-0.547c-0.761-0.496-1.26-1.107-1.394-1.822
			c-0.486-2.574,3.248-8.551,9.047-9.537c5.805-0.988,11.48,3.381,11.965,5.959c0.088,0.467,0.014,0.943-0.194,1.418
			c18.188-5.666,34.163-16.361,46.305-30.465c-3.494-6.746-8.404-12.918-14.43-18.299c0.624,0.853,1.132,1.818,1.513,2.836
			c0.766,2.108,0.929,4.447,0.611,6.694c-0.645,4.526-3.192,8.661-6.653,11.543c-3.458,2.886-7.975,4.65-12.532,4.47
			c-2.262-0.092-4.522-0.672-6.453-1.807c-1.914-1.145-3.515-2.774-4.293-4.718c3.489,2.265,7.138,2.598,10.498,1.988
			c3.376-0.62,6.461-2.22,9.074-4.389c2.594-2.189,4.718-4.944,5.935-8.157c1.171-3.113,1.505-6.658,0.058-10.394
			c-0.08-0.066-0.165-0.128-0.245-0.194c0.088,0.06,0.172,0.127,0.262,0.184c-2.094-5.081-1.653-9.903-0.064-14.125
			c1.627-4.263,4.351-7.819,7.889-10.817c3.329-2.76,7.493-4.946,11.92-5.736c4.431-0.81,9.251-0.368,13.851,2.62
			C390.039,366.325,387.93,364.172,385.402,362.665z M319.5,387.597l0.007-0.021c0.016,0.006,0.028,0.024,0.044,0.03
			c0.015,0.007,0.041,0.005,0.056,0.012l-0.009,0.023c2.854,1.484,3.121,12.49,1.67,19.37c-4.073-3.773-10.063-6.521-17.011-7.568
			C308.329,393.717,316.486,386.517,319.5,387.597z M276.687,387.642l-0.011-0.023c0.016-0.007,0.041-0.005,0.056-0.012
			c0.016-0.006,0.028-0.024,0.044-0.03l0.009,0.021c3.012-1.081,11.168,6.12,15.243,11.847c-6.949,1.046-12.938,3.794-17.015,7.568
			C273.563,400.132,273.833,389.126,276.687,387.642z M298.291,440.826c-15.958,0-28.897-8.801-28.897-19.656
			c0-10.856,12.939-19.656,28.897-19.656c15.961,0,28.902,8.799,28.902,19.656C327.193,432.025,314.252,440.826,298.291,440.826z"/>
	</g>
</g>
</svg>
